<svg version="1.1" viewBox="0.0 0.0 960.0 720.0" fill="none" stroke="none" stroke-linecap="square" stroke-miterlimit="10" xmlns:xlink="http://www.w3.org/1999/xlink" xmlns="http://www.w3.org/2000/svg"><clipPath id="p.0"><path d="m0 0l960.0 0l0 720.0l-960.0 0l0 -720.0z" clip-rule="nonzero"/></clipPath><g clip-path="url(#p.0)"><path fill="#000000" fill-opacity="0.0" d="m0 0l960.0 0l0 720.0l-960.0 0z" fill-rule="evenodd"/><path fill="#000000" fill-opacity="0.0" d="m677.9475 424.25723l-413.5433 0l0 -273.51184l413.5433 0z" fill-rule="evenodd"/><path fill="#ffffff" d="m607.08813 157.9291q9.859375 0 14.125 4.390625q4.265625 4.40625 4.265625 16.671875q0 8.265625 -1.734375 21.1875q-1.734375 12.9375 -5.734375 35.609375q-6.921875 41.85939 -10.921875 72.531265q-2.40625 19.203125 -2.40625 32.0q0 12.0 8.796875 12.0q6.9375 0 16.671875 -7.078125q9.734375 -7.0625 21.46875 -22.53125q3.734375 -5.0625 8.265625 -5.0625q3.734375 0 6.53125 3.59375q2.796875 3.609375 2.796875 8.140625q0 4.265625 -1.734375 8.65625q-1.734375 4.40625 -5.734375 10.015625q-12.796875 17.859375 -28.53125 27.59375q-15.734375 9.734375 -31.46875 9.734375q-14.65625 0 -22.515625 -9.34375q-7.875 -9.328125 -7.875 -27.1875q0 -7.203125 1.34375 -16.9375q1.328125 -9.734375 2.390625 -15.875q1.0625 -6.125 1.59375 -8.515625q-15.203125 43.453125 -34.125 60.65625q-18.9375 17.203125 -41.609375 17.203125q-17.328125 0 -27.328125 -12.265625q-10.0 -12.265625 -10.0 -34.671875q0 -8.796875 2.40625 -21.859375q-13.34375 36.796875 -31.203125 52.796875q-17.859375 16.0 -41.0625 16.0q-18.671875 0 -28.671875 -12.0q-10.0 -12.0 -10.0 -33.59375q0 -11.734375 3.46875 -28.53125l16.265625 -76.26564q2.671875 -13.34375 2.671875 -22.9375q0 -11.203125 -5.203125 -16.796875q-5.203125 -5.59375 -14.53125 -5.59375q-8.796875 0 -17.1875 5.859375q-8.40625 5.859375 -19.875 19.46875q-3.203125 3.734375 -7.203125 3.734375q-3.46875 0 -5.46875 -3.203125q-2.0 -3.203125 -2.0 -8.796875q0 -10.40625 5.0625 -16.53125q13.875 -16.8125 27.484375 -24.546875q13.59375 -7.71875 28.515625 -7.71875q22.671875 0 35.46875 13.453125q12.796875 13.46875 12.796875 36.140625q0 15.734375 -6.390625 45.59375l-10.671875 48.79689q-0.53125 2.40625 -1.859375 8.53125q-1.34375 6.140625 -2.140625 11.609375q-0.796875 5.46875 -0.796875 10.796875q0 9.328125 3.609375 14.0q3.59375 4.671875 10.25 4.671875q12.53125 0 26.265625 -16.140625q13.734375 -16.125 26.140625 -53.46875q12.390625 -37.32814 20.125 -97.062515q1.875 -16.0 6.546875 -21.46875q4.65625 -5.453125 15.0625 -5.453125q9.0625 0 13.203125 4.265625q4.125 4.265625 4.125 16.0q0 10.921875 -2.9375 28.65625q-2.9375 17.734375 -7.46875 41.734375q-12.265625 64.531265 -12.265625 83.20314q0 10.125 3.875 14.921875q3.859375 4.8125 11.59375 4.8125q13.0625 0 26.9375 -14.8125q13.859375 -14.796875 27.0625 -52.53125q13.203125 -37.718765 22.0 -101.98439q1.859375 -13.609375 5.46875 -18.9375q3.59375 -5.328125 14.0 -5.328125z" fill-rule="nonzero"/><path fill="#000000" fill-opacity="0.0" d="m282.0525 295.74014l413.54333 0l0 273.5118l-413.54333 0z" fill-rule="evenodd"/><path fill="#ffffff" d="m352.91187 562.0683q-9.859375 0 -14.125 -4.390625q-4.265625 -4.40625 -4.265625 -16.671875q0 -8.265625 1.734375 -21.1875q1.734375 -12.9375305 5.734375 -35.609406q6.921875 -41.859375 10.921875 -72.53125q2.40625 -19.203125 2.40625 -32.0q0 -12.0 -8.796875 -12.0q-6.9375 0 -16.671875 7.078125q-9.734375 7.0625 -21.46875 22.53125q-3.734375 5.0625 -8.265625 5.0625q-3.734375 0 -6.53125 -3.59375q-2.796875 -3.609375 -2.796875 -8.140625q0 -4.265625 1.734375 -8.65625q1.734375 -4.40625 5.734375 -10.015625q12.796875 -17.859375 28.53125 -27.59375q15.734375 -9.734375 31.46875 -9.734375q14.65625 0 22.515625 9.34375q7.875 9.328125 7.875 27.1875q0 7.203125 -1.34375 16.9375q-1.328125 9.734375 -2.390625 15.875q-1.0625 6.125 -1.59375 8.515625q15.203125 -43.453125 34.125 -60.65625q18.9375 -17.203125 41.609375 -17.203125q17.328125 0 27.328125 12.265625q10.0 12.265625 10.0 34.671875q0 8.796875 -2.40625 21.859375q13.34375 -36.796875 31.203125 -52.796875q17.859375 -16.0 41.0625 -16.0q18.671875 0 28.671875 12.0q10.0 12.0 10.0 33.59375q0 11.734375 -3.46875 28.53125l-16.265625 76.265625q-2.671875 13.34375 -2.671875 22.9375q0 11.2031555 5.203125 16.796906q5.203125 5.59375 14.53125 5.59375q8.796875 0 17.1875 -5.859375q8.40625 -5.859375 19.875 -19.46878q3.203125 -3.734375 7.203125 -3.734375q3.46875 0 5.46875 3.203125q2.0 3.203125 2.0 8.7969055q0 10.40625 -5.0625 16.53125q-13.875 16.8125 -27.484375 24.546875q-13.59375 7.71875 -28.515625 7.71875q-22.671875 0 -35.46875 -13.453125q-12.796875 -13.46875 -12.796875 -36.140625q0 -15.7344055 6.390625 -45.59378l10.671875 -48.796875q0.53125 -2.40625 1.859375 -8.53125q1.34375 -6.140625 2.140625 -11.609375q0.796875 -5.46875 0.796875 -10.796875q0 -9.328125 -3.609375 -14.0q-3.59375 -4.671875 -10.25 -4.671875q-12.53125 0 -26.265625 16.140625q-13.734375 16.125 -26.140625 53.46875q-12.390625 37.328125 -20.125 97.06253q-1.875 16.0 -6.546875 21.46875q-4.65625 5.453125 -15.0625 5.453125q-9.0625 0 -13.203125 -4.265625q-4.125 -4.265625 -4.125 -16.0q0 -10.921875 2.9375 -28.65625q2.9375 -17.734406 7.46875 -41.734406q12.265625 -64.53125 12.265625 -83.203125q0 -10.125 -3.875 -14.921875q-3.859375 -4.8125 -11.59375 -4.8125q-13.0625 0 -26.9375 14.8125q-13.859375 14.796875 -27.0625 52.53125q-13.203125 37.71875 -22.0 101.984406q-1.859375 13.609375 -5.46875 18.9375q-3.59375 5.328125 -14.0 5.328125z" fill-rule="nonzero"/><path fill="#ffffff" d="m368.4992 370.7869c-11.533264 10.984253 -4.944458 36.797913 1.6456604 41.19162c6.5901184 4.3937073 30.206024 -6.5914307 37.89502 -14.829407c7.688965 -8.237976 -2.4707031 -27.733582 8.238831 -34.59842c10.709534 -6.8648376 44.485138 -15.102814 56.01837 -6.5905457c11.533264 8.512238 6.041565 54.643463 13.181122 57.664032c7.1395264 3.0205688 14.003937 -28.556854 29.656128 -39.54068c15.652283 -10.983826 51.62555 -12.632111 64.25726 -26.362213c12.631653 -13.730072 20.32019 -57.66577 11.532776 -56.01837c-8.787415 1.6474304 -45.309692 59.038055 -64.2572 65.90289c-18.94751 6.8648376 -39.54242 -15.926941 -49.427826 -24.713898c-9.885376 -8.786987 -3.5686646 -30.204742 -9.8845215 -28.007874c-6.3158264 2.1968384 -11.534546 30.20514 -28.010498 41.188965c-16.475922 10.983826 -59.31189 13.729645 -70.84512 24.713898z" fill-rule="evenodd"/></g></svg>